<svg data-v-423bf9ae="" xmlns="http://www.w3.org/2000/svg" viewBox="0 0 518 90" class="iconLeftSlogan"><!----><!----><!----><g data-v-423bf9ae="" id="3bdde5b4-7378-4e70-bd3c-708d55c085bf" fill="black" transform="matrix(5.434782627474683,0,0,5.434782627474683,93.33019783465684,-14.782608663802932)"><path d="M4.06 9.35L4.21 9.35C5.33 9.37 6.26 9.14 6.90 8.65C7.59 8.13 7.94 7.38 7.94 6.38C7.94 5.53 7.71 4.89 7.25 4.47C6.66 3.94 5.83 3.77 4.85 3.77C4.62 3.77 4.25 3.78 3.75 3.81C3.21 3.85 2.72 3.87 2.25 3.87L1.06 3.87C1.09 4.19 1.12 4.52 1.14 4.88C1.20 5.64 1.23 6.36 1.23 7.04L1.23 10.38C1.23 10.77 1.23 11.14 1.21 11.52C1.18 12.24 1.15 12.91 1.10 13.53L3.58 13.53C3.53 13.13 3.50 12.80 3.49 12.53C3.43 11.85 3.40 11.13 3.40 10.38L3.40 4.67C3.63 4.67 3.81 4.67 3.93 4.66C4.05 4.66 4.21 4.67 4.42 4.68C4.82 4.70 5.17 4.85 5.45 5.12C5.76 5.45 5.92 5.90 5.92 6.48C5.92 7.08 5.78 7.56 5.50 7.90C5.29 8.17 5.01 8.35 4.67 8.44C4.45 8.51 4.24 8.53 4.05 8.51L3.81 8.51ZM15.49 12.74L15.28 12.79C15.23 12.80 15.18 12.81 15.13 12.81L15.09 12.81C14.91 12.80 14.79 12.71 14.72 12.50C14.67 12.36 14.64 12.14 14.64 11.87L14.64 9.69C14.64 8.86 14.50 8.27 14.16 7.87C13.79 7.44 13.18 7.22 12.24 7.22C11.80 7.22 11.32 7.29 10.81 7.44C10.24 7.60 9.77 7.83 9.39 8.11L9.60 8.84C9.87 8.62 10.16 8.45 10.44 8.32C10.86 8.12 11.24 8.02 11.59 8.02C11.99 8.02 12.27 8.16 12.43 8.43C12.56 8.64 12.62 8.97 12.62 9.42L12.62 10.11L10.21 10.90C9.59 11.10 9.24 11.27 9.04 11.47C8.82 11.69 8.75 11.94 8.75 12.36C8.75 12.84 8.93 13.20 9.28 13.42C9.60 13.64 10.07 13.74 10.70 13.74C11.07 13.74 11.46 13.67 11.87 13.53C12.22 13.41 12.53 13.24 12.79 13.05C12.98 13.45 13.40 13.72 14.04 13.72C14.39 13.72 14.72 13.68 15.02 13.59C15.29 13.52 15.49 13.44 15.62 13.35ZM11.38 12.82C10.82 12.82 10.61 12.67 10.61 12.14C10.61 11.91 10.72 11.73 10.95 11.58C11.14 11.46 11.49 11.32 11.85 11.19L12.62 10.90L12.62 12.38C12.50 12.50 12.29 12.61 12.01 12.70C11.75 12.78 11.54 12.82 11.38 12.82ZM16.37 13.20C16.54 13.29 16.75 13.38 17.01 13.48C17.54 13.66 18.07 13.76 18.58 13.76C19.31 13.76 20.04 13.59 20.59 13.28C21.20 12.92 21.56 12.38 21.56 11.63C21.56 11.30 21.48 11.03 21.33 10.79C21.06 10.39 20.62 10.05 20.00 9.78C19.68 9.64 19.43 9.53 19.24 9.44C18.71 9.18 18.43 8.96 18.43 8.64C18.43 8.43 18.54 8.25 18.75 8.13C18.93 8.03 19.17 7.97 19.47 7.97C19.70 7.97 19.91 8.00 20.10 8.06C20.45 8.18 20.72 8.33 20.92 8.53L21.14 7.67C20.99 7.57 20.84 7.50 20.66 7.44C20.25 7.29 19.83 7.22 19.39 7.22C18.96 7.22 18.55 7.27 18.16 7.39C17.70 7.53 17.34 7.74 17.07 8.02C16.75 8.34 16.59 8.74 16.59 9.20C16.59 9.53 16.67 9.81 16.82 10.04C17.09 10.45 17.53 10.81 18.14 11.10L18.46 11.26C18.66 11.35 18.80 11.42 18.89 11.47C19.41 11.73 19.68 11.94 19.68 12.23C19.68 12.48 19.58 12.67 19.38 12.80C19.17 12.92 18.93 12.99 18.63 12.99C18.37 12.99 18.11 12.95 17.86 12.88C17.38 12.75 16.94 12.57 16.55 12.33ZM22.50 8.30L23.31 8.30L23.31 10.43C23.31 11.66 23.46 12.46 23.85 12.97C24.24 13.51 24.90 13.76 25.91 13.76C26.28 13.76 26.59 13.73 26.85 13.66C27.38 13.54 27.78 13.38 28.07 13.16L27.91 12.32C27.78 12.43 27.64 12.51 27.49 12.59C27.15 12.76 26.82 12.85 26.51 12.85C26.00 12.85 25.71 12.63 25.54 12.17C25.38 11.75 25.33 11.10 25.33 10.06L25.33 8.32L25.97 8.35L26.31 8.37L27.00 8.42C27.12 8.44 27.19 8.44 27.20 8.45L27.41 7.44L25.33 7.44C25.33 6.70 25.33 6.06 25.34 5.53C25.35 5.38 25.35 5.19 25.35 4.96L24.11 4.96C23.97 5.16 23.83 5.37 23.71 5.60C23.44 6.08 23.31 6.49 23.31 6.82L23.31 7.50C23.23 7.51 23.11 7.54 22.95 7.57C22.74 7.64 22.59 7.69 22.50 7.73ZM32.43 7.22C31.77 7.22 31.16 7.32 30.61 7.53C29.99 7.77 29.50 8.12 29.16 8.57C28.77 9.10 28.57 9.75 28.57 10.51C28.57 11.59 28.99 12.42 29.69 12.97C30.34 13.50 31.26 13.76 32.26 13.76C32.66 13.76 33.07 13.68 33.50 13.52C33.89 13.38 34.21 13.22 34.35 13.06L34.20 12.34C34.01 12.47 33.80 12.58 33.54 12.67C33.16 12.82 32.79 12.89 32.42 12.89C31.98 12.89 31.56 12.69 31.24 12.32C30.90 11.92 30.69 11.33 30.69 10.58L30.69 10.43C30.69 10.39 30.69 10.35 30.70 10.28L34.01 10.28L34.47 10.28C34.57 10.28 34.72 10.28 34.91 10.28L35.29 10.28C35.37 10.29 35.47 10.29 35.58 10.29L35.73 9.54L35.58 9.54C35.52 9.55 35.42 9.55 35.27 9.55L34.92 9.55C34.85 9.55 34.75 9.55 34.64 9.55C34.92 9.44 35.07 9.21 35.07 8.72C35.07 8.38 34.92 8.08 34.62 7.83C34.36 7.63 34.02 7.47 33.58 7.36C33.21 7.27 32.82 7.22 32.43 7.22ZM32.40 8.09C33.03 8.09 33.43 8.42 33.43 8.97C33.43 9.18 33.35 9.33 33.17 9.42C33.05 9.49 32.88 9.53 32.66 9.53C32.25 9.53 31.93 9.53 31.72 9.52L30.78 9.52C30.89 9.05 31.13 8.68 31.43 8.44C31.71 8.21 32.06 8.09 32.40 8.09ZM37.14 10.91C37.14 11.30 37.13 11.65 37.12 11.96C37.09 12.60 37.05 13.13 37.00 13.53L39.29 13.53C39.27 13.36 39.24 13.11 39.22 12.80C39.18 12.23 39.16 11.61 39.16 10.91L39.16 5.53C39.16 5.13 39.16 4.76 39.18 4.42C39.20 3.75 39.23 3.19 39.29 2.72L37.00 2.90C37.02 3.08 37.05 3.35 37.07 3.69C37.12 4.36 37.14 5.03 37.14 5.70ZM47.65 12.74L47.44 12.79C47.39 12.80 47.34 12.81 47.29 12.81L47.24 12.81C47.07 12.80 46.95 12.71 46.88 12.50C46.83 12.36 46.80 12.14 46.80 11.87L46.80 9.69C46.80 8.86 46.66 8.27 46.32 7.87C45.95 7.44 45.34 7.22 44.39 7.22C43.95 7.22 43.48 7.29 42.97 7.44C42.40 7.60 41.93 7.83 41.55 8.11L41.75 8.84C42.03 8.62 42.31 8.45 42.60 8.32C43.02 8.12 43.40 8.02 43.75 8.02C44.15 8.02 44.43 8.16 44.59 8.43C44.72 8.64 44.78 8.97 44.78 9.42L44.78 10.11L42.37 10.90C41.75 11.10 41.40 11.27 41.20 11.47C40.98 11.69 40.91 11.94 40.91 12.36C40.91 12.84 41.08 13.20 41.44 13.42C41.76 13.64 42.23 13.74 42.85 13.74C43.23 13.74 43.62 13.67 44.02 13.53C44.38 13.41 44.69 13.24 44.95 13.05C45.14 13.45 45.56 13.72 46.19 13.72C46.55 13.72 46.88 13.68 47.18 13.59C47.45 13.52 47.65 13.44 47.78 13.35ZM43.53 12.82C42.98 12.82 42.76 12.67 42.76 12.14C42.76 11.91 42.88 11.73 43.11 11.58C43.30 11.46 43.65 11.32 44.01 11.19L44.78 10.90L44.78 12.38C44.65 12.50 44.45 12.61 44.17 12.70C43.91 12.78 43.69 12.82 43.53 12.82ZM51.32 10.64C51.32 10.08 51.47 9.51 51.75 9.06C52.04 8.59 52.44 8.31 52.88 8.31C53.83 8.31 54.21 8.90 54.21 10.19L54.21 11.09C54.21 11.46 54.21 11.79 54.19 12.10C54.17 12.68 54.13 13.16 54.08 13.53L56.36 13.53L56.31 13.09L56.30 12.93C56.27 12.37 56.24 11.73 56.24 11.00L56.24 9.79C56.24 9.02 56.08 8.42 55.74 8.01C55.31 7.48 54.63 7.22 53.68 7.22C53.23 7.22 52.74 7.38 52.31 7.64C51.90 7.90 51.55 8.25 51.36 8.62C51.38 8.17 51.40 7.84 51.42 7.63C51.42 7.64 51.43 7.55 51.45 7.33L49.16 7.51L49.18 7.69L49.23 8.20C49.28 8.79 49.30 9.43 49.30 10.09L49.30 10.91C49.30 11.30 49.29 11.65 49.28 11.96C49.25 12.60 49.21 13.13 49.16 13.53L51.45 13.53L51.43 13.31C51.41 13.17 51.40 12.97 51.39 12.72C51.34 12.04 51.32 11.35 51.32 10.64ZM57.74 10.35C57.74 11.30 57.95 12.06 58.37 12.64C58.82 13.27 59.49 13.63 60.40 13.71C60.54 13.72 60.68 13.73 60.82 13.73C60.93 13.73 61.06 13.71 61.21 13.69C61.64 13.66 62.02 13.52 62.35 13.27C62.57 13.10 62.76 12.86 62.94 12.54L62.92 12.92C62.92 13.06 62.90 13.16 62.89 13.24L62.87 13.53L65.16 13.53C65.14 13.36 65.11 13.11 65.09 12.80C65.04 12.17 65.02 11.54 65.02 10.91L65.02 6.03C65.02 5.54 65.03 5.12 65.04 4.73C65.07 3.97 65.11 3.43 65.14 3.12L65.16 2.90L62.87 2.72L62.89 2.95L62.94 3.58C62.99 4.40 63.01 5.14 63.01 5.82L63.01 8.37C62.86 8.09 62.67 7.86 62.43 7.69C62.11 7.46 61.73 7.33 61.26 7.28C61.13 7.26 60.96 7.25 60.75 7.25C60.60 7.25 60.48 7.25 60.40 7.26C59.49 7.32 58.81 7.62 58.37 8.18C57.95 8.69 57.74 9.42 57.74 10.35ZM59.83 10.35C59.83 9.60 59.97 9.02 60.26 8.61C60.51 8.23 60.87 8.04 61.32 8.04C61.70 8.04 62.11 8.18 62.42 8.51C62.81 8.94 63.01 9.58 63.01 10.42C63.01 11.23 62.84 11.85 62.50 12.29C62.24 12.63 61.89 12.81 61.55 12.87C61.47 12.89 61.39 12.90 61.30 12.90C61.01 12.90 60.77 12.80 60.55 12.58C60.31 12.36 60.13 12.01 60.00 11.56C59.88 11.16 59.83 10.76 59.83 10.35ZM67.31 5.17L69.03 5.99L69.78 4.38L68.08 3.58ZM67.49 10.91C67.49 11.30 67.49 11.65 67.47 11.96C67.45 12.57 67.41 13.10 67.36 13.53L69.64 13.53C69.62 13.36 69.59 13.11 69.57 12.80C69.53 12.23 69.51 11.61 69.51 10.91L69.51 9.94C69.51 9.54 69.52 9.18 69.53 8.86C69.55 8.24 69.59 7.73 69.64 7.33L67.36 7.51L67.42 8.20C67.47 8.79 67.49 9.43 67.49 10.09ZM77.99 12.74L77.78 12.79C77.73 12.80 77.69 12.81 77.64 12.81L77.59 12.81C77.41 12.80 77.29 12.71 77.22 12.50C77.18 12.36 77.15 12.14 77.15 11.87L77.15 9.69C77.15 8.86 77.01 8.27 76.66 7.87C76.29 7.44 75.68 7.22 74.74 7.22C74.30 7.22 73.82 7.29 73.31 7.44C72.74 7.60 72.28 7.83 71.90 8.11L72.10 8.84C72.37 8.62 72.66 8.45 72.95 8.32C73.36 8.12 73.75 8.02 74.09 8.02C74.49 8.02 74.77 8.16 74.94 8.43C75.06 8.64 75.12 8.97 75.12 9.42L75.12 10.11L72.72 10.90C72.09 11.10 71.74 11.27 71.54 11.47C71.32 11.69 71.25 11.94 71.25 12.36C71.25 12.84 71.43 13.20 71.79 13.42C72.11 13.64 72.58 13.74 73.20 13.74C73.57 13.74 73.96 13.67 74.37 13.53C74.73 13.41 75.03 13.24 75.29 13.05C75.48 13.45 75.90 13.72 76.54 13.72C76.90 13.72 77.22 13.68 77.53 13.59C77.79 13.52 77.99 13.44 78.13 13.35ZM73.88 12.82C73.33 12.82 73.11 12.67 73.11 12.14C73.11 11.91 73.22 11.73 73.45 11.58C73.64 11.46 74.00 11.32 74.35 11.19L75.12 10.90L75.12 12.38C75.00 12.50 74.80 12.61 74.52 12.70C74.26 12.78 74.04 12.82 73.88 12.82Z"></path></g><!----><g data-v-423bf9ae="" id="4da3fc99-20d5-45a9-8bf0-acaa8a5ebdae" transform="matrix(1.4545218703605942,0,0,1.4545218703605942,-33.02954253360116,-27.664096017651815)" stroke="none" fill="black"><ellipse cx="40.881" cy="60.312" rx="1.875" ry="2.812"></ellipse><ellipse cx="59.631" cy="60.312" rx="1.875" ry="2.812"></ellipse><path d="M55.881 65.938a.937.937 0 0 0-.938.938c0 2.586-2.102 4.688-4.688 4.688s-4.688-2.102-4.688-4.688a.937.937 0 1 0-1.876 0c0 3.618 2.944 6.562 6.562 6.562s6.562-2.944 6.562-6.562a.93.93 0 0 0-.934-.938z"></path><path d="M72.756 50.938h-.938V38.75a6.57 6.57 0 0 0-6.562-6.562h-.938V27.5c0-4.652-3.785-8.438-8.438-8.438H44.63c-4.653 0-8.438 3.785-8.438 8.438v4.688h-.938a6.57 6.57 0 0 0-6.562 6.562v12.188h-.938a4.693 4.693 0 0 0-4.688 4.688V80c0 .519.419.938.938.938h52.5a.937.937 0 0 0 .938-.938V55.625a4.688 4.688 0 0 0-4.686-4.687zm-28.125-30h11.25c2.992 0 5.493 2.025 6.281 4.767-.487.353-.925.739-1.32 1.135-.894.894-1.599 1.599-3.085 1.599s-2.194-.707-3.087-1.601c-.958-.957-2.149-2.149-4.413-2.149s-3.455 1.192-4.413 2.149c-.894.894-1.601 1.601-3.087 1.601s-2.192-.705-3.085-1.601c-.397-.396-.833-.78-1.32-1.133.786-2.742 3.288-4.767 6.279-4.767zm-6.562 6.963c.091.089.183.17.276.264.958.955 2.148 2.147 4.411 2.147s3.455-1.192 4.413-2.149c.894-.894 1.601-1.601 3.087-1.601s2.194.707 3.087 1.601c.958.957 2.149 2.149 4.413 2.149s3.454-1.19 4.411-2.147c.093-.094.185-.175.276-.264v4.286H38.069v-4.286zm-2.813 6.161h30a4.693 4.693 0 0 1 4.688 4.688v3.651a9.649 9.649 0 0 0-1.602 1.311c-.894.896-1.599 1.601-3.085 1.601s-2.194-.707-3.087-1.601c-.958-.957-2.149-2.149-4.413-2.149s-3.455 1.192-4.413 2.149c-.894.894-1.601 1.601-3.087 1.601s-2.194-.707-3.087-1.601c-.958-.957-2.149-2.149-4.413-2.149s-3.455 1.192-4.413 2.149c-.894.894-1.601 1.601-3.087 1.601-1.485 0-2.192-.705-3.085-1.599A9.811 9.811 0 0 0 30.57 42.4v-3.65a4.69 4.69 0 0 1 4.686-4.688zm-4.687 10.715c.091.09.183.169.276.263.958.957 2.15 2.147 4.411 2.147 2.263 0 3.455-1.192 4.413-2.149.894-.894 1.601-1.601 3.087-1.601s2.194.707 3.087 1.601c.958.957 2.149 2.149 4.413 2.149s3.455-1.192 4.413-2.149c.894-.894 1.601-1.601 3.087-1.601s2.194.707 3.087 1.601c.958.957 2.149 2.149 4.413 2.149s3.454-1.192 4.411-2.147c.093-.094.185-.173.276-.263v6.16H30.569v-6.16zm45 34.285H24.944V55.625a2.815 2.815 0 0 1 2.812-2.812h45a2.815 2.815 0 0 1 2.812 2.812v23.437z"></path></g><!----><g data-v-423bf9ae="" id="b62cf2d8-9007-47c2-a822-1d47a6a21400" fill="black" transform="matrix(1.3157176299251279,0,0,1.3157176299251279,98.61741486394823,52.513565546453634)"><path d="M6.51 14.40L0.36 14.40L0.39 14.11L1.54 13.90L1.54 6.34L0.37 6.17L0.40 5.90L3.51 5.90L3.48 6.17L2.28 6.32L2.28 14.03L5.90 14.03L6.43 12.09L6.73 12.14L6.51 14.40ZM18.50 6.98L17.14 10.75L19.82 10.75L18.50 6.98ZM17.19 14.40L14.46 14.40L14.49 14.11L15.46 13.90L18.46 5.82L18.82 5.73L21.66 13.95L22.56 14.08L22.50 14.39L19.71 14.39L19.77 14.10L20.90 13.90L19.95 11.13L17.00 11.13L15.99 13.95L17.25 14.08L17.19 14.40ZM40.22 8.09L40.15 5.89L47.22 5.89L46.98 8.16L46.63 8.12L46.52 6.24L43.98 6.24L43.98 13.90L45.19 14.08L45.12 14.40L42.02 14.40L42.05 14.11L43.25 13.90L43.25 6.24L40.82 6.24L40.58 8.15L40.22 8.09ZM56.09 6.33L54.91 6.16L54.95 5.89L58.07 5.89L58.02 6.16L56.83 6.32L56.83 13.95L58.15 14.08L58.08 14.40L54.97 14.40L55.01 14.11L56.09 13.90L56.09 6.33ZM67.08 6.36L65.86 6.18L65.91 5.89L72.10 5.89L71.89 8.07L71.57 8.03L71.44 6.24L67.79 6.24L67.79 9.89L70.08 9.89L70.33 8.94L70.70 8.89L70.48 11.55L70.13 11.61L70.02 10.26L67.79 10.26L67.79 14.03L71.63 14.03L72.14 12.19L72.42 12.26L72.21 14.40L65.88 14.40L65.92 14.11L67.08 13.90L67.08 6.36ZM81.95 6.18L81.95 10.11L83.50 10.11L83.50 10.11Q84.18 9.86 84.64 9.28L84.64 9.28L84.64 9.28Q85.10 8.70 85.10 8.02L85.10 8.02L85.10 8.02Q85.10 7.11 84.48 6.63L84.48 6.63L84.48 6.63Q83.86 6.15 82.78 6.15L82.78 6.15L81.95 6.18ZM83.32 14.40L80.13 14.40L80.18 14.11L81.25 13.90L81.25 6.51L80.15 6.37L80.21 6.13L80.21 6.13Q82.04 5.83 83.12 5.83L83.12 5.83L83.12 5.83Q83.88 5.83 84.49 6.05L84.49 6.05L84.49 6.05Q85.10 6.27 85.48 6.73L85.48 6.73L85.48 6.73Q85.85 7.19 85.85 7.83L85.85 7.83L85.85 7.83Q85.85 8.57 85.43 9.14L85.43 9.14L85.43 9.14Q85.00 9.72 83.97 10.23L83.97 10.23L83.97 10.23L85.29 12.19L85.29 12.19Q86.00 13.23 86.34 13.58L86.34 13.58L86.34 13.58Q86.69 13.92 87.07 14.05L87.07 14.05L87.40 14.16L87.36 14.42L87.36 14.42Q87.06 14.52 86.72 14.52L86.72 14.52L86.72 14.52Q86.43 14.52 86.18 14.40L86.18 14.40L86.18 14.40Q85.93 14.28 85.69 14.01L85.69 14.01L85.69 14.01Q85.44 13.75 85.26 13.48L85.26 13.48L85.26 13.48Q85.07 13.22 84.80 12.77L84.80 12.77L83.41 10.49L81.95 10.49L81.95 13.95L83.39 14.08L83.32 14.40ZM96.91 6.18L96.91 10.11L98.46 10.11L98.46 10.11Q99.14 9.86 99.60 9.28L99.60 9.28L99.60 9.28Q100.06 8.70 100.06 8.02L100.06 8.02L100.06 8.02Q100.06 7.11 99.44 6.63L99.44 6.63L99.44 6.63Q98.82 6.15 97.73 6.15L97.73 6.15L96.91 6.18ZM98.28 14.40L95.09 14.40L95.14 14.11L96.20 13.90L96.20 6.51L95.11 6.37L95.17 6.13L95.17 6.13Q97.00 5.83 98.08 5.83L98.08 5.83L98.08 5.83Q98.84 5.83 99.45 6.05L99.45 6.05L99.45 6.05Q100.06 6.27 100.43 6.73L100.43 6.73L100.43 6.73Q100.81 7.19 100.81 7.83L100.81 7.83L100.81 7.83Q100.81 8.57 100.38 9.14L100.38 9.14L100.38 9.14Q99.96 9.72 98.92 10.23L98.92 10.23L98.92 10.23L100.24 12.19L100.24 12.19Q100.95 13.23 101.30 13.58L101.30 13.58L101.30 13.58Q101.64 13.92 102.03 14.05L102.03 14.05L102.35 14.16L102.31 14.42L102.31 14.42Q102.02 14.52 101.68 14.52L101.68 14.52L101.68 14.52Q101.39 14.52 101.14 14.40L101.14 14.40L101.14 14.40Q100.88 14.28 100.64 14.01L100.64 14.01L100.64 14.01Q100.40 13.75 100.21 13.48L100.21 13.48L100.21 13.48Q100.03 13.22 99.76 12.77L99.76 12.77L98.37 10.49L96.91 10.49L96.91 13.95L98.35 14.08L98.28 14.40ZM114.11 6.98L112.74 10.75L115.42 10.75L114.11 6.98ZM112.79 14.40L110.06 14.40L110.09 14.11L111.06 13.90L114.06 5.82L114.42 5.73L117.26 13.95L118.16 14.08L118.10 14.39L115.31 14.39L115.37 14.10L116.50 13.90L115.55 11.13L112.60 11.13L111.59 13.95L112.85 14.08L112.79 14.40ZM137.66 6.19L137.66 14.03L138.89 14.03L138.89 14.03Q140.69 14.03 141.79 12.95L141.79 12.95L141.79 12.95Q142.88 11.87 142.88 10.12L142.88 10.12L142.88 10.12Q142.88 8.20 141.83 7.18L141.83 7.18L141.83 7.18Q140.78 6.16 138.84 6.16L138.84 6.16L138.84 6.16Q137.85 6.16 137.66 6.19L137.66 6.19ZM138.70 14.40L135.75 14.40L135.81 14.11L136.96 13.90L136.96 6.51L135.79 6.36L135.86 6.12L135.86 6.12Q137.94 5.79 139.10 5.79L139.10 5.79L139.10 5.79Q140.06 5.79 140.84 6.03L140.84 6.03L140.84 6.03Q141.61 6.26 142.13 6.66L142.13 6.66L142.13 6.66Q142.64 7.05 142.98 7.59L142.98 7.59L142.98 7.59Q143.32 8.13 143.47 8.71L143.47 8.71L143.47 8.71Q143.62 9.29 143.62 9.92L143.62 9.92L143.62 9.92Q143.62 10.64 143.45 11.28L143.45 11.28L143.45 11.28Q143.28 11.93 142.90 12.50L142.90 12.50L142.90 12.50Q142.52 13.08 141.95 13.49L141.95 13.49L141.95 13.49Q141.39 13.91 140.56 14.15L140.56 14.15L140.56 14.15Q139.73 14.40 138.70 14.40L138.70 14.40ZM152.56 6.36L151.34 6.18L151.39 5.89L157.58 5.89L157.37 8.07L157.06 8.03L156.93 6.24L153.28 6.24L153.28 9.89L155.57 9.89L155.82 8.94L156.19 8.89L155.96 11.55L155.61 11.61L155.50 10.26L153.28 10.26L153.28 14.03L157.12 14.03L157.62 12.19L157.90 12.26L157.70 14.40L151.36 14.40L151.40 14.11L152.56 13.90L152.56 6.36ZM171.78 14.40L165.63 14.40L165.66 14.11L166.82 13.90L166.82 6.34L165.64 6.17L165.67 5.90L168.78 5.90L168.75 6.17L167.55 6.32L167.55 14.03L171.17 14.03L171.70 12.09L172.00 12.14L171.78 14.40ZM189.64 13.60L189.64 13.60L189.84 11.66L190.17 11.71L190.36 13.21L190.36 13.21Q190.59 13.64 191.12 13.89L191.12 13.89L191.12 13.89Q191.65 14.14 192.25 14.14L192.25 14.14L192.25 14.14Q192.93 14.14 193.41 13.74L193.41 13.74L193.41 13.74Q193.89 13.33 193.89 12.61L193.89 12.61L193.89 12.61Q193.89 12.20 193.67 11.83L193.67 11.83L193.67 11.83Q193.46 11.46 193.11 11.18L193.11 11.18L193.11 11.18Q192.77 10.90 192.35 10.63L192.35 10.63L192.35 10.63Q191.93 10.36 191.51 10.07L191.51 10.07L191.51 10.07Q191.09 9.79 190.75 9.48L190.75 9.48L190.75 9.48Q190.40 9.17 190.19 8.75L190.19 8.75L190.19 8.75Q189.97 8.33 189.97 7.84L189.97 7.84L189.97 7.84Q189.97 6.88 190.66 6.29L190.66 6.29L190.66 6.29Q191.36 5.71 192.24 5.71L192.24 5.71L192.24 5.71Q192.83 5.71 193.37 5.90L193.37 5.90L193.37 5.90Q193.91 6.09 194.24 6.46L194.24 6.46L194.01 8.58L193.70 8.53L193.51 6.87L193.51 6.87Q193.33 6.54 192.91 6.32L192.91 6.32L192.91 6.32Q192.49 6.10 192.06 6.10L192.06 6.10L192.06 6.10Q191.47 6.10 191.05 6.48L191.05 6.48L191.05 6.48Q190.64 6.87 190.64 7.52L190.64 7.52L190.64 7.52Q190.64 7.96 190.86 8.35L190.86 8.35L190.86 8.35Q191.08 8.74 191.44 9.03L191.44 9.03L191.44 9.03Q191.79 9.32 192.21 9.61L192.21 9.61L192.21 9.61Q192.64 9.89 193.06 10.17L193.06 10.17L193.06 10.17Q193.49 10.45 193.84 10.75L193.84 10.75L193.84 10.75Q194.20 11.05 194.42 11.45L194.42 11.45L194.42 11.45Q194.64 11.85 194.64 12.29L194.64 12.29L194.64 12.29Q194.64 13.28 193.89 13.93L193.89 13.93L193.89 13.93Q193.14 14.57 191.89 14.57L191.89 14.57L191.89 14.57Q191.18 14.57 190.58 14.30L190.58 14.30L190.58 14.30Q189.98 14.03 189.64 13.60ZM206.42 6.98L205.05 10.75L207.74 10.75L206.42 6.98ZM205.10 14.40L202.37 14.40L202.41 14.11L203.38 13.90L206.37 5.82L206.73 5.73L209.57 13.95L210.47 14.08L210.42 14.39L207.62 14.39L207.68 14.10L208.82 13.90L207.87 11.13L204.91 11.13L203.90 13.95L205.16 14.08L205.10 14.40ZM220.06 6.15L220.06 9.75L222.17 9.75L222.17 9.75Q222.63 9.45 222.97 9.01L222.97 9.01L222.97 9.01Q223.30 8.57 223.30 8.02L223.30 8.02L223.30 8.02Q223.30 7.08 222.66 6.59L222.66 6.59L222.66 6.59Q222.02 6.11 220.89 6.11L220.89 6.11L220.89 6.11Q220.24 6.11 220.06 6.15L220.06 6.15ZM220.06 10.08L220.06 14.03L221.74 14.03L221.74 14.03Q222.37 14.03 222.83 13.85L222.83 13.85L222.83 13.85Q223.29 13.68 223.53 13.38L223.53 13.38L223.53 13.38Q223.77 13.08 223.88 12.74L223.88 12.74L223.88 12.74Q223.99 12.41 223.99 12.02L223.99 12.02L223.99 12.02Q223.99 11.68 223.88 11.36L223.88 11.36L223.88 11.36Q223.77 11.04 223.54 10.74L223.54 10.74L223.54 10.74Q223.30 10.45 222.85 10.26L222.85 10.26L222.85 10.26Q222.41 10.08 221.81 10.08L221.81 10.08L220.06 10.08ZM221.06 14.40L218.16 14.40L218.21 14.11L219.37 13.90L219.37 6.51L218.19 6.36L218.26 6.12L218.26 6.12Q218.38 6.10 218.82 6.03L218.82 6.03L218.82 6.03Q219.26 5.96 219.43 5.94L219.43 5.94L219.43 5.94Q219.60 5.91 219.96 5.87L219.96 5.87L219.96 5.87Q220.32 5.83 220.63 5.82L220.63 5.82L220.63 5.82Q220.94 5.80 221.29 5.80L221.29 5.80L221.29 5.80Q222.57 5.80 223.29 6.38L223.29 6.38L223.29 6.38Q224 6.96 224 7.79L224 7.79L224 7.79Q224 8.98 222.58 9.76L222.58 9.76L222.58 9.80L222.58 9.80Q223.58 9.86 224.15 10.46L224.15 10.46L224.15 10.46Q224.72 11.05 224.72 11.80L224.72 11.80L224.72 11.80Q224.72 12.22 224.62 12.58L224.62 12.58L224.62 12.58Q224.51 12.95 224.25 13.29L224.25 13.29L224.25 13.29Q223.99 13.63 223.58 13.87L223.58 13.87L223.58 13.87Q223.18 14.11 222.53 14.25L222.53 14.25L222.53 14.25Q221.89 14.40 221.06 14.40L221.06 14.40ZM233.21 9.75L233.21 9.75L233.21 9.75Q233.21 11.03 233.57 12.01L233.57 12.01L233.57 12.01Q233.93 13.00 234.65 13.57L234.65 13.57L234.65 13.57Q235.37 14.14 236.35 14.14L236.35 14.14L236.35 14.14Q236.92 14.14 237.41 13.92L237.41 13.92L237.41 13.92Q237.90 13.70 238.25 13.33L238.25 13.33L238.25 13.33Q238.59 12.96 238.84 12.49L238.84 12.49L238.84 12.49Q239.08 12.01 239.20 11.50L239.20 11.50L239.20 11.50Q239.31 10.99 239.31 10.48L239.31 10.48L239.31 10.48Q239.31 8.50 238.46 7.29L238.46 7.29L238.46 7.29Q237.61 6.07 236.16 6.07L236.16 6.07L236.16 6.07Q235.58 6.07 235.09 6.28L235.09 6.28L235.09 6.28Q234.60 6.49 234.25 6.85L234.25 6.85L234.25 6.85Q233.91 7.21 233.67 7.69L233.67 7.69L233.67 7.69Q233.43 8.16 233.32 8.69L233.32 8.69L233.32 8.69Q233.21 9.21 233.21 9.75ZM232.46 10.16L232.46 10.16L232.46 10.16Q232.46 8.16 233.55 6.92L233.55 6.92L233.55 6.92Q234.65 5.69 236.49 5.69L236.49 5.69L236.49 5.69Q237.62 5.69 238.44 6.27L238.44 6.27L238.44 6.27Q239.26 6.86 239.65 7.84L239.65 7.84L239.65 7.84Q240.05 8.83 240.05 10.11L240.05 10.11L240.05 10.11Q240.05 10.75 239.90 11.38L239.90 11.38L239.90 11.38Q239.75 12.00 239.43 12.58L239.43 12.58L239.43 12.58Q239.10 13.17 238.64 13.61L238.64 13.61L238.64 13.61Q238.18 14.05 237.50 14.32L237.50 14.32L237.50 14.32Q236.82 14.58 236.02 14.58L236.02 14.58L236.02 14.58Q234.96 14.58 234.14 13.98L234.14 13.98L234.14 13.98Q233.32 13.37 232.89 12.37L232.89 12.37L232.89 12.37Q232.46 11.37 232.46 10.16ZM249.59 6.18L249.59 10.11L251.15 10.11L251.15 10.11Q251.83 9.86 252.29 9.28L252.29 9.28L252.29 9.28Q252.75 8.70 252.75 8.02L252.75 8.02L252.75 8.02Q252.75 7.11 252.13 6.63L252.13 6.63L252.13 6.63Q251.51 6.15 250.42 6.15L250.42 6.15L249.59 6.18ZM250.97 14.40L247.78 14.40L247.82 14.11L248.89 13.90L248.89 6.51L247.80 6.37L247.86 6.13L247.86 6.13Q249.68 5.83 250.76 5.83L250.76 5.83L250.76 5.83Q251.53 5.83 252.14 6.05L252.14 6.05L252.14 6.05Q252.75 6.27 253.12 6.73L253.12 6.73L253.12 6.73Q253.50 7.19 253.50 7.83L253.50 7.83L253.50 7.83Q253.50 8.57 253.07 9.14L253.07 9.14L253.07 9.14Q252.64 9.72 251.61 10.23L251.61 10.23L251.61 10.23L252.93 12.19L252.93 12.19Q253.64 13.23 253.99 13.58L253.99 13.58L253.99 13.58Q254.33 13.92 254.71 14.05L254.71 14.05L255.04 14.16L255.00 14.42L255.00 14.42Q254.71 14.52 254.37 14.52L254.37 14.52L254.37 14.52Q254.08 14.52 253.83 14.40L253.83 14.40L253.83 14.40Q253.57 14.28 253.33 14.01L253.33 14.01L253.33 14.01Q253.09 13.75 252.90 13.48L252.90 13.48L252.90 13.48Q252.72 13.22 252.44 12.77L252.44 12.77L251.06 10.49L249.59 10.49L249.59 13.95L251.04 14.08L250.97 14.40Z"></path></g></svg>