<svg data-v-423bf9ae="" xmlns="http://www.w3.org/2000/svg" viewBox="0 0 418.8586954409098 60" class="font"><!----><!----><!----><g data-v-423bf9ae="" id="bb2dcf12-ab1b-4c41-b8ae-c455a32ea6b8" fill="black" transform="matrix(5.434782627474683,0,0,5.434782627474683,-5.760866618468157,-14.782608663802932)"><path d="M4.06 9.35L4.21 9.35C5.33 9.37 6.26 9.14 6.90 8.65C7.59 8.13 7.94 7.38 7.94 6.38C7.94 5.53 7.71 4.89 7.25 4.47C6.66 3.94 5.83 3.77 4.85 3.77C4.62 3.77 4.25 3.78 3.75 3.81C3.21 3.85 2.72 3.87 2.25 3.87L1.06 3.87C1.09 4.19 1.12 4.52 1.14 4.88C1.20 5.64 1.23 6.36 1.23 7.04L1.23 10.38C1.23 10.77 1.23 11.14 1.21 11.52C1.18 12.24 1.15 12.91 1.10 13.53L3.58 13.53C3.53 13.13 3.50 12.80 3.49 12.53C3.43 11.85 3.40 11.13 3.40 10.38L3.40 4.67C3.63 4.67 3.81 4.67 3.93 4.66C4.05 4.66 4.21 4.67 4.42 4.68C4.82 4.70 5.17 4.85 5.45 5.12C5.76 5.45 5.92 5.90 5.92 6.48C5.92 7.08 5.78 7.56 5.50 7.90C5.29 8.17 5.01 8.35 4.67 8.44C4.45 8.51 4.24 8.53 4.05 8.51L3.81 8.51ZM15.49 12.74L15.28 12.79C15.23 12.80 15.18 12.81 15.13 12.81L15.09 12.81C14.91 12.80 14.79 12.71 14.72 12.50C14.67 12.36 14.64 12.14 14.64 11.87L14.64 9.69C14.64 8.86 14.50 8.27 14.16 7.87C13.79 7.44 13.18 7.22 12.24 7.22C11.80 7.22 11.32 7.29 10.81 7.44C10.24 7.60 9.77 7.83 9.39 8.11L9.60 8.84C9.87 8.62 10.16 8.45 10.44 8.32C10.86 8.12 11.24 8.02 11.59 8.02C11.99 8.02 12.27 8.16 12.43 8.43C12.56 8.64 12.62 8.97 12.62 9.42L12.62 10.11L10.21 10.90C9.59 11.10 9.24 11.27 9.04 11.47C8.82 11.69 8.75 11.94 8.75 12.36C8.75 12.84 8.93 13.20 9.28 13.42C9.60 13.64 10.07 13.74 10.70 13.74C11.07 13.74 11.46 13.67 11.87 13.53C12.22 13.41 12.53 13.24 12.79 13.05C12.98 13.45 13.40 13.72 14.04 13.72C14.39 13.72 14.72 13.68 15.02 13.59C15.29 13.52 15.49 13.44 15.62 13.35ZM11.38 12.82C10.82 12.82 10.61 12.67 10.61 12.14C10.61 11.91 10.72 11.73 10.95 11.58C11.14 11.46 11.49 11.32 11.85 11.19L12.62 10.90L12.62 12.38C12.50 12.50 12.29 12.61 12.01 12.70C11.75 12.78 11.54 12.82 11.38 12.82ZM16.37 13.20C16.54 13.29 16.75 13.38 17.01 13.48C17.54 13.66 18.07 13.76 18.58 13.76C19.31 13.76 20.04 13.59 20.59 13.28C21.20 12.92 21.56 12.38 21.56 11.63C21.56 11.30 21.48 11.03 21.33 10.79C21.06 10.39 20.62 10.05 20.00 9.78C19.68 9.64 19.43 9.53 19.24 9.44C18.71 9.18 18.43 8.96 18.43 8.64C18.43 8.43 18.54 8.25 18.75 8.13C18.93 8.03 19.17 7.97 19.47 7.97C19.70 7.97 19.91 8.00 20.10 8.06C20.45 8.18 20.72 8.33 20.92 8.53L21.14 7.67C20.99 7.57 20.84 7.50 20.66 7.44C20.25 7.29 19.83 7.22 19.39 7.22C18.96 7.22 18.55 7.27 18.16 7.39C17.70 7.53 17.34 7.74 17.07 8.02C16.75 8.34 16.59 8.74 16.59 9.20C16.59 9.53 16.67 9.81 16.82 10.04C17.09 10.45 17.53 10.81 18.14 11.10L18.46 11.26C18.66 11.35 18.80 11.42 18.89 11.47C19.41 11.73 19.68 11.94 19.68 12.23C19.68 12.48 19.58 12.67 19.38 12.80C19.17 12.92 18.93 12.99 18.63 12.99C18.37 12.99 18.11 12.95 17.86 12.88C17.38 12.75 16.94 12.57 16.55 12.33ZM22.50 8.30L23.31 8.30L23.31 10.43C23.31 11.66 23.46 12.46 23.85 12.97C24.24 13.51 24.90 13.76 25.91 13.76C26.28 13.76 26.59 13.73 26.85 13.66C27.38 13.54 27.78 13.38 28.07 13.16L27.91 12.32C27.78 12.43 27.64 12.51 27.49 12.59C27.15 12.76 26.82 12.85 26.51 12.85C26.00 12.85 25.71 12.63 25.54 12.17C25.38 11.75 25.33 11.10 25.33 10.06L25.33 8.32L25.97 8.35L26.31 8.37L27.00 8.42C27.12 8.44 27.19 8.44 27.20 8.45L27.41 7.44L25.33 7.44C25.33 6.70 25.33 6.06 25.34 5.53C25.35 5.38 25.35 5.19 25.35 4.96L24.11 4.96C23.97 5.16 23.83 5.37 23.71 5.60C23.44 6.08 23.31 6.49 23.31 6.82L23.31 7.50C23.23 7.51 23.11 7.54 22.95 7.57C22.74 7.64 22.59 7.69 22.50 7.73ZM32.43 7.22C31.77 7.22 31.16 7.32 30.61 7.53C29.99 7.77 29.50 8.12 29.16 8.57C28.77 9.10 28.57 9.75 28.57 10.51C28.57 11.59 28.99 12.42 29.69 12.97C30.34 13.50 31.26 13.76 32.26 13.76C32.66 13.76 33.07 13.68 33.50 13.52C33.89 13.38 34.21 13.22 34.35 13.06L34.20 12.34C34.01 12.47 33.80 12.58 33.54 12.67C33.16 12.82 32.79 12.89 32.42 12.89C31.98 12.89 31.56 12.69 31.24 12.32C30.90 11.92 30.69 11.33 30.69 10.58L30.69 10.43C30.69 10.39 30.69 10.35 30.70 10.28L34.01 10.28L34.47 10.28C34.57 10.28 34.72 10.28 34.91 10.28L35.29 10.28C35.37 10.29 35.47 10.29 35.58 10.29L35.73 9.54L35.58 9.54C35.52 9.55 35.42 9.55 35.27 9.55L34.92 9.55C34.85 9.55 34.75 9.55 34.64 9.55C34.92 9.44 35.07 9.21 35.07 8.72C35.07 8.38 34.92 8.08 34.62 7.83C34.36 7.63 34.02 7.47 33.58 7.36C33.21 7.27 32.82 7.22 32.43 7.22ZM32.40 8.09C33.03 8.09 33.43 8.42 33.43 8.97C33.43 9.18 33.35 9.33 33.17 9.42C33.05 9.49 32.88 9.53 32.66 9.53C32.25 9.53 31.93 9.53 31.72 9.52L30.78 9.52C30.89 9.05 31.13 8.68 31.43 8.44C31.71 8.21 32.06 8.09 32.40 8.09ZM37.14 10.91C37.14 11.30 37.13 11.65 37.12 11.96C37.09 12.60 37.05 13.13 37.00 13.53L39.29 13.53C39.27 13.36 39.24 13.11 39.22 12.80C39.18 12.23 39.16 11.61 39.16 10.91L39.16 5.53C39.16 5.13 39.16 4.76 39.18 4.42C39.20 3.75 39.23 3.19 39.29 2.72L37.00 2.90C37.02 3.08 37.05 3.35 37.07 3.69C37.12 4.36 37.14 5.03 37.14 5.70ZM47.65 12.74L47.44 12.79C47.39 12.80 47.34 12.81 47.29 12.81L47.24 12.81C47.07 12.80 46.95 12.71 46.88 12.50C46.83 12.36 46.80 12.14 46.80 11.87L46.80 9.69C46.80 8.86 46.66 8.27 46.32 7.87C45.95 7.44 45.34 7.22 44.39 7.22C43.95 7.22 43.48 7.29 42.97 7.44C42.40 7.60 41.93 7.83 41.55 8.11L41.75 8.84C42.03 8.62 42.31 8.45 42.60 8.32C43.02 8.12 43.40 8.02 43.75 8.02C44.15 8.02 44.43 8.16 44.59 8.43C44.72 8.64 44.78 8.97 44.78 9.42L44.78 10.11L42.37 10.90C41.75 11.10 41.40 11.27 41.20 11.47C40.98 11.69 40.91 11.94 40.91 12.36C40.91 12.84 41.08 13.20 41.44 13.42C41.76 13.64 42.23 13.74 42.85 13.74C43.23 13.74 43.62 13.67 44.02 13.53C44.38 13.41 44.69 13.24 44.95 13.05C45.14 13.45 45.56 13.72 46.19 13.72C46.55 13.72 46.88 13.68 47.18 13.59C47.45 13.52 47.65 13.44 47.78 13.35ZM43.53 12.82C42.98 12.82 42.76 12.67 42.76 12.14C42.76 11.91 42.88 11.73 43.11 11.58C43.30 11.46 43.65 11.32 44.01 11.19L44.78 10.90L44.78 12.38C44.65 12.50 44.45 12.61 44.17 12.70C43.91 12.78 43.69 12.82 43.53 12.82ZM51.32 10.64C51.32 10.08 51.47 9.51 51.75 9.06C52.04 8.59 52.44 8.31 52.88 8.31C53.83 8.31 54.21 8.90 54.21 10.19L54.21 11.09C54.21 11.46 54.21 11.79 54.19 12.10C54.17 12.68 54.13 13.16 54.08 13.53L56.36 13.53L56.31 13.09L56.30 12.93C56.27 12.37 56.24 11.73 56.24 11.00L56.24 9.79C56.24 9.02 56.08 8.42 55.74 8.01C55.31 7.48 54.63 7.22 53.68 7.22C53.23 7.22 52.74 7.38 52.31 7.64C51.90 7.90 51.55 8.25 51.36 8.62C51.38 8.17 51.40 7.84 51.42 7.63C51.42 7.64 51.43 7.55 51.45 7.33L49.16 7.51L49.18 7.69L49.23 8.20C49.28 8.79 49.30 9.43 49.30 10.09L49.30 10.91C49.30 11.30 49.29 11.65 49.28 11.96C49.25 12.60 49.21 13.13 49.16 13.53L51.45 13.53L51.43 13.31C51.41 13.17 51.40 12.97 51.39 12.72C51.34 12.04 51.32 11.35 51.32 10.64ZM57.74 10.35C57.74 11.30 57.95 12.06 58.37 12.64C58.82 13.27 59.49 13.63 60.40 13.71C60.54 13.72 60.68 13.73 60.82 13.73C60.93 13.73 61.06 13.71 61.21 13.69C61.64 13.66 62.02 13.52 62.35 13.27C62.57 13.10 62.76 12.86 62.94 12.54L62.92 12.92C62.92 13.06 62.90 13.16 62.89 13.24L62.87 13.53L65.16 13.53C65.14 13.36 65.11 13.11 65.09 12.80C65.04 12.17 65.02 11.54 65.02 10.91L65.02 6.03C65.02 5.54 65.03 5.12 65.04 4.73C65.07 3.97 65.11 3.43 65.14 3.12L65.16 2.90L62.87 2.72L62.89 2.95L62.94 3.58C62.99 4.40 63.01 5.14 63.01 5.82L63.01 8.37C62.86 8.09 62.67 7.86 62.43 7.69C62.11 7.46 61.73 7.33 61.26 7.28C61.13 7.26 60.96 7.25 60.75 7.25C60.60 7.25 60.48 7.25 60.40 7.26C59.49 7.32 58.81 7.62 58.37 8.18C57.95 8.69 57.74 9.42 57.74 10.35ZM59.83 10.35C59.83 9.60 59.97 9.02 60.26 8.61C60.51 8.23 60.87 8.04 61.32 8.04C61.70 8.04 62.11 8.18 62.42 8.51C62.81 8.94 63.01 9.58 63.01 10.42C63.01 11.23 62.84 11.85 62.50 12.29C62.24 12.63 61.89 12.81 61.55 12.87C61.47 12.89 61.39 12.90 61.30 12.90C61.01 12.90 60.77 12.80 60.55 12.58C60.31 12.36 60.13 12.01 60.00 11.56C59.88 11.16 59.83 10.76 59.83 10.35ZM67.31 5.17L69.03 5.99L69.78 4.38L68.08 3.58ZM67.49 10.91C67.49 11.30 67.49 11.65 67.47 11.96C67.45 12.57 67.41 13.10 67.36 13.53L69.64 13.53C69.62 13.36 69.59 13.11 69.57 12.80C69.53 12.23 69.51 11.61 69.51 10.91L69.51 9.94C69.51 9.54 69.52 9.18 69.53 8.86C69.55 8.24 69.59 7.73 69.64 7.33L67.36 7.51L67.42 8.20C67.47 8.79 67.49 9.43 67.49 10.09ZM77.99 12.74L77.78 12.79C77.73 12.80 77.69 12.81 77.64 12.81L77.59 12.81C77.41 12.80 77.29 12.71 77.22 12.50C77.18 12.36 77.15 12.14 77.15 11.87L77.15 9.69C77.15 8.86 77.01 8.27 76.66 7.87C76.29 7.44 75.68 7.22 74.74 7.22C74.30 7.22 73.82 7.29 73.31 7.44C72.74 7.60 72.28 7.83 71.90 8.11L72.10 8.84C72.37 8.62 72.66 8.45 72.95 8.32C73.36 8.12 73.75 8.02 74.09 8.02C74.49 8.02 74.77 8.16 74.94 8.43C75.06 8.64 75.12 8.97 75.12 9.42L75.12 10.11L72.72 10.90C72.09 11.10 71.74 11.27 71.54 11.47C71.32 11.69 71.25 11.94 71.25 12.36C71.25 12.84 71.43 13.20 71.79 13.42C72.11 13.64 72.58 13.74 73.20 13.74C73.57 13.74 73.96 13.67 74.37 13.53C74.73 13.41 75.03 13.24 75.29 13.05C75.48 13.45 75.90 13.72 76.54 13.72C76.90 13.72 77.22 13.68 77.53 13.59C77.79 13.52 77.99 13.44 78.13 13.35ZM73.88 12.82C73.33 12.82 73.11 12.67 73.11 12.14C73.11 11.91 73.22 11.73 73.45 11.58C73.64 11.46 74.00 11.32 74.35 11.19L75.12 10.90L75.12 12.38C75.00 12.50 74.80 12.61 74.52 12.70C74.26 12.78 74.04 12.82 73.88 12.82Z"></path></g><!----><!----></svg>